# xmcd
# Track frame offsets:
# 150
# 3014
# 34553
# 59829
# 89009
# 109694
# 111676
# 129700
# 150312
# 172057
# 200600
# 228938
# 257499
# 285978
#
# Disc length: 4233 seconds
# Revision: 0
# Processed by: cddbd v1.5PL3 Copyright (c) Steve Scherf et al.
# Submitted via: VisiTrax 2.9.7.197 - For more info visit www.synapsa.com
#
DISCID=bd10870e
DTITLE=Bigg Robb - Loves All The Plus Sized Women Of The World
DYEAR=2003
DGENRE=Blues
TTITLE0=Keepin' It Real
TTITLE1=The Bigg Woman Song (Remix)
TTITLE2=The Bigg Woman Song (Original Mix)
TTITLE3=Southern Ladies (2 Step Remix)
TTITLE4=Tune Up
TTITLE5=Over 25 Sound Commercial Break
TTITLE6=Quality Time
TTITLE7=Can I Get My Flow On?
TTITLE8=I Want A Bigg Woman For Xmas
TTITLE9=Louisiana Remix
TTITLE10=Mississippi-Remix
TTITLE11=Youngstown-Remix
TTITLE12=Toledo-Remix
TTITLE13=The Bigg Robb Song (Karaoke Track)
EXTD=
EXTT0=
EXTT1=
EXTT2=
EXTT3=
EXTT4=
EXTT5=
EXTT6=
EXTT7=
EXTT8=
EXTT9=
EXTT10=
EXTT11=
EXTT12=
EXTT13=
PLAYORDER=
